<mxfile host="app.diagrams.net" modified="2023-11-11T09:12:19.139Z" agent="Mozilla/5.0 (Windows NT 10.0; Win64; x64) AppleWebKit/537.36 (KHTML, like Gecko) Chrome/119.0.0.0 Safari/537.36" etag="9ub7B876cMigw-4kcneX" version="22.1.0" type="google">
  <diagram name="Sayfa -1" id="MpunopHkA3QTU1ZINthr">
    <mxGraphModel dx="1050" dy="1831" grid="1" gridSize="10" guides="1" tooltips="1" connect="1" arrows="1" fold="1" page="1" pageScale="1" pageWidth="827" pageHeight="1169" math="0" shadow="0">
      <root>
        <mxCell id="0" />
        <mxCell id="1" parent="0" />
        <mxCell id="DQBXJ2V9FcqI_M96Gr92-1" value="User" style="shape=umlActor;verticalLabelPosition=bottom;verticalAlign=top;html=1;" parent="1" vertex="1">
          <mxGeometry x="130" y="160" width="30" height="60" as="geometry" />
        </mxCell>
        <mxCell id="DQBXJ2V9FcqI_M96Gr92-2" value="Visitor" style="shape=umlActor;verticalLabelPosition=bottom;verticalAlign=top;html=1;" parent="1" vertex="1">
          <mxGeometry x="130" y="360" width="30" height="60" as="geometry" />
        </mxCell>
        <mxCell id="DQBXJ2V9FcqI_M96Gr92-24" value="Hungerger App" style="swimlane;fillColor=#FFFFFF;" parent="1" vertex="1">
          <mxGeometry x="200" y="-440" width="600" height="1110" as="geometry" />
        </mxCell>
        <mxCell id="DQBXJ2V9FcqI_M96Gr92-26" value="Create Profile" style="ellipse;whiteSpace=wrap;html=1;" parent="DQBXJ2V9FcqI_M96Gr92-24" vertex="1">
          <mxGeometry x="90" y="940" width="90" height="50" as="geometry" />
        </mxCell>
        <mxCell id="DQBXJ2V9FcqI_M96Gr92-51" value="Create recipe" style="ellipse;whiteSpace=wrap;html=1;" parent="DQBXJ2V9FcqI_M96Gr92-24" vertex="1">
          <mxGeometry x="110" y="470" width="90" height="50" as="geometry" />
        </mxCell>
        <mxCell id="DQBXJ2V9FcqI_M96Gr92-54" value="Delete recipe" style="ellipse;whiteSpace=wrap;html=1;" parent="DQBXJ2V9FcqI_M96Gr92-24" vertex="1">
          <mxGeometry x="110" y="650" width="90" height="50" as="geometry" />
        </mxCell>
        <mxCell id="DQBXJ2V9FcqI_M96Gr92-55" value="Edit Recipe" style="ellipse;whiteSpace=wrap;html=1;" parent="DQBXJ2V9FcqI_M96Gr92-24" vertex="1">
          <mxGeometry x="110" y="530" width="90" height="50" as="geometry" />
        </mxCell>
        <mxCell id="DQBXJ2V9FcqI_M96Gr92-58" value="Comment Recipe" style="ellipse;whiteSpace=wrap;html=1;" parent="DQBXJ2V9FcqI_M96Gr92-24" vertex="1">
          <mxGeometry x="110" y="410" width="90" height="50" as="geometry" />
        </mxCell>
        <mxCell id="DQBXJ2V9FcqI_M96Gr92-59" value="Search Recipe" style="ellipse;whiteSpace=wrap;html=1;" parent="DQBXJ2V9FcqI_M96Gr92-24" vertex="1">
          <mxGeometry x="124" y="350" width="90" height="50" as="geometry" />
        </mxCell>
        <mxCell id="DQBXJ2V9FcqI_M96Gr92-62" value="Rate Recipe" style="ellipse;whiteSpace=wrap;html=1;" parent="DQBXJ2V9FcqI_M96Gr92-24" vertex="1">
          <mxGeometry x="110" y="590" width="90" height="50" as="geometry" />
        </mxCell>
        <mxCell id="DQBXJ2V9FcqI_M96Gr92-63" value="Report Misuse" style="ellipse;whiteSpace=wrap;html=1;" parent="DQBXJ2V9FcqI_M96Gr92-24" vertex="1">
          <mxGeometry x="150" y="40" width="90" height="50" as="geometry" />
        </mxCell>
        <mxCell id="DQBXJ2V9FcqI_M96Gr92-66" value="" style="endArrow=none;html=1;rounded=0;" parent="DQBXJ2V9FcqI_M96Gr92-24" edge="1">
          <mxGeometry width="50" height="50" relative="1" as="geometry">
            <mxPoint x="250" y="64.5" as="sourcePoint" />
            <mxPoint x="720" y="64.5" as="targetPoint" />
          </mxGeometry>
        </mxCell>
        <mxCell id="DQBXJ2V9FcqI_M96Gr92-72" value="Update to Verified Account" style="ellipse;whiteSpace=wrap;html=1;" parent="DQBXJ2V9FcqI_M96Gr92-24" vertex="1">
          <mxGeometry x="90" y="130" width="110" height="50" as="geometry" />
        </mxCell>
        <mxCell id="As2ihan8Wz4cfaNSFqjq-11" value="Follow User" style="ellipse;whiteSpace=wrap;html=1;" parent="DQBXJ2V9FcqI_M96Gr92-24" vertex="1">
          <mxGeometry x="110" y="870" width="90" height="50" as="geometry" />
        </mxCell>
        <mxCell id="As2ihan8Wz4cfaNSFqjq-21" value="Edit Profile" style="ellipse;whiteSpace=wrap;html=1;" parent="DQBXJ2V9FcqI_M96Gr92-24" vertex="1">
          <mxGeometry x="110" y="740" width="90" height="50" as="geometry" />
        </mxCell>
        <mxCell id="As2ihan8Wz4cfaNSFqjq-24" value="Delete Profile" style="ellipse;whiteSpace=wrap;html=1;" parent="DQBXJ2V9FcqI_M96Gr92-24" vertex="1">
          <mxGeometry x="110" y="810" width="90" height="50" as="geometry" />
        </mxCell>
        <mxCell id="DQBXJ2V9FcqI_M96Gr92-37" value="" style="endArrow=none;html=1;rounded=0;entryX=0.011;entryY=0.38;entryDx=0;entryDy=0;entryPerimeter=0;" parent="1" target="DQBXJ2V9FcqI_M96Gr92-26" edge="1">
          <mxGeometry width="50" height="50" relative="1" as="geometry">
            <mxPoint x="170" y="400" as="sourcePoint" />
            <mxPoint x="280" y="510" as="targetPoint" />
          </mxGeometry>
        </mxCell>
        <mxCell id="DQBXJ2V9FcqI_M96Gr92-49" value="Marketplace" style="shape=umlActor;verticalLabelPosition=bottom;verticalAlign=top;html=1;outlineConnect=0;" parent="1" vertex="1">
          <mxGeometry x="870" y="20" width="30" height="60" as="geometry" />
        </mxCell>
        <mxCell id="DQBXJ2V9FcqI_M96Gr92-50" value="Admin" style="shape=umlActor;verticalLabelPosition=bottom;verticalAlign=top;html=1;" parent="1" vertex="1">
          <mxGeometry x="940" y="-400" width="30" height="60" as="geometry" />
        </mxCell>
        <mxCell id="DQBXJ2V9FcqI_M96Gr92-64" value="" style="endArrow=none;html=1;rounded=0;entryX=0;entryY=0.5;entryDx=0;entryDy=0;" parent="1" target="DQBXJ2V9FcqI_M96Gr92-63" edge="1">
          <mxGeometry width="50" height="50" relative="1" as="geometry">
            <mxPoint x="140" y="140" as="sourcePoint" />
            <mxPoint x="890" y="-90" as="targetPoint" />
            <Array as="points">
              <mxPoint x="140" y="-375" />
            </Array>
          </mxGeometry>
        </mxCell>
        <mxCell id="DQBXJ2V9FcqI_M96Gr92-69" value="" style="endArrow=none;html=1;rounded=0;exitX=1;exitY=0.5;exitDx=0;exitDy=0;" parent="1" source="DQBXJ2V9FcqI_M96Gr92-51" edge="1">
          <mxGeometry width="50" height="50" relative="1" as="geometry">
            <mxPoint x="410" y="60" as="sourcePoint" />
            <mxPoint x="880" y="55" as="targetPoint" />
          </mxGeometry>
        </mxCell>
        <mxCell id="DQBXJ2V9FcqI_M96Gr92-73" value="" style="endArrow=none;html=1;rounded=0;exitX=1;exitY=0.5;exitDx=0;exitDy=0;" parent="1" source="DQBXJ2V9FcqI_M96Gr92-72" edge="1">
          <mxGeometry width="50" height="50" relative="1" as="geometry">
            <mxPoint x="600" y="-40" as="sourcePoint" />
            <mxPoint x="960" y="-320" as="targetPoint" />
            <Array as="points">
              <mxPoint x="960" y="-285" />
            </Array>
          </mxGeometry>
        </mxCell>
        <mxCell id="As2ihan8Wz4cfaNSFqjq-2" value="" style="endArrow=none;html=1;rounded=0;" parent="1" edge="1">
          <mxGeometry width="50" height="50" relative="1" as="geometry">
            <mxPoint x="160" y="100" as="sourcePoint" />
            <mxPoint x="290" y="-280" as="targetPoint" />
            <Array as="points">
              <mxPoint x="160" y="-280" />
            </Array>
          </mxGeometry>
        </mxCell>
        <mxCell id="As2ihan8Wz4cfaNSFqjq-8" value="" style="endArrow=none;html=1;rounded=0;entryX=0;entryY=0.5;entryDx=0;entryDy=0;" parent="1" target="DQBXJ2V9FcqI_M96Gr92-59" edge="1">
          <mxGeometry width="50" height="50" relative="1" as="geometry">
            <mxPoint x="150" y="130" as="sourcePoint" />
            <mxPoint x="600" y="20" as="targetPoint" />
            <Array as="points" />
          </mxGeometry>
        </mxCell>
        <mxCell id="As2ihan8Wz4cfaNSFqjq-15" value="" style="endArrow=none;html=1;rounded=0;entryX=0;entryY=0.5;entryDx=0;entryDy=0;" parent="1" target="DQBXJ2V9FcqI_M96Gr92-58" edge="1">
          <mxGeometry width="50" height="50" relative="1" as="geometry">
            <mxPoint x="160" y="130" as="sourcePoint" />
            <mxPoint x="600" y="210" as="targetPoint" />
          </mxGeometry>
        </mxCell>
        <mxCell id="As2ihan8Wz4cfaNSFqjq-16" value="" style="endArrow=none;html=1;rounded=0;entryX=0;entryY=0.5;entryDx=0;entryDy=0;" parent="1" target="DQBXJ2V9FcqI_M96Gr92-51" edge="1">
          <mxGeometry width="50" height="50" relative="1" as="geometry">
            <mxPoint x="160" y="150" as="sourcePoint" />
            <mxPoint x="600" y="210" as="targetPoint" />
          </mxGeometry>
        </mxCell>
        <mxCell id="As2ihan8Wz4cfaNSFqjq-17" value="" style="endArrow=none;html=1;rounded=0;entryX=0;entryY=0.5;entryDx=0;entryDy=0;" parent="1" target="DQBXJ2V9FcqI_M96Gr92-55" edge="1">
          <mxGeometry width="50" height="50" relative="1" as="geometry">
            <mxPoint x="170" y="160" as="sourcePoint" />
            <mxPoint x="600" y="210" as="targetPoint" />
          </mxGeometry>
        </mxCell>
        <mxCell id="As2ihan8Wz4cfaNSFqjq-19" value="" style="endArrow=none;html=1;rounded=0;entryX=0;entryY=0.5;entryDx=0;entryDy=0;" parent="1" target="DQBXJ2V9FcqI_M96Gr92-62" edge="1">
          <mxGeometry width="50" height="50" relative="1" as="geometry">
            <mxPoint x="170" y="180" as="sourcePoint" />
            <mxPoint x="600" y="210" as="targetPoint" />
          </mxGeometry>
        </mxCell>
        <mxCell id="As2ihan8Wz4cfaNSFqjq-20" value="" style="endArrow=none;html=1;rounded=0;exitX=0;exitY=0.5;exitDx=0;exitDy=0;" parent="1" source="DQBXJ2V9FcqI_M96Gr92-54" edge="1">
          <mxGeometry width="50" height="50" relative="1" as="geometry">
            <mxPoint x="550" y="260" as="sourcePoint" />
            <mxPoint x="170" y="200" as="targetPoint" />
          </mxGeometry>
        </mxCell>
        <mxCell id="As2ihan8Wz4cfaNSFqjq-22" value="" style="endArrow=none;html=1;rounded=0;entryX=0;entryY=0.5;entryDx=0;entryDy=0;" parent="1" source="DQBXJ2V9FcqI_M96Gr92-1" target="As2ihan8Wz4cfaNSFqjq-21" edge="1">
          <mxGeometry width="50" height="50" relative="1" as="geometry">
            <mxPoint x="200" y="230" as="sourcePoint" />
            <mxPoint x="600" y="410" as="targetPoint" />
          </mxGeometry>
        </mxCell>
        <mxCell id="As2ihan8Wz4cfaNSFqjq-23" value="" style="endArrow=none;html=1;rounded=0;exitX=1;exitY=0.5;exitDx=0;exitDy=0;" parent="1" source="DQBXJ2V9FcqI_M96Gr92-54" edge="1">
          <mxGeometry width="50" height="50" relative="1" as="geometry">
            <mxPoint x="550" y="60" as="sourcePoint" />
            <mxPoint x="960" y="-270" as="targetPoint" />
            <Array as="points">
              <mxPoint x="960" y="235" />
            </Array>
          </mxGeometry>
        </mxCell>
        <mxCell id="As2ihan8Wz4cfaNSFqjq-25" value="" style="endArrow=none;html=1;rounded=0;exitX=1.022;exitY=0.66;exitDx=0;exitDy=0;exitPerimeter=0;" parent="1" source="As2ihan8Wz4cfaNSFqjq-24" edge="1">
          <mxGeometry width="50" height="50" relative="1" as="geometry">
            <mxPoint x="550" y="360" as="sourcePoint" />
            <mxPoint x="960" y="250" as="targetPoint" />
            <Array as="points">
              <mxPoint x="960" y="400" />
            </Array>
          </mxGeometry>
        </mxCell>
        <mxCell id="As2ihan8Wz4cfaNSFqjq-26" value="" style="endArrow=none;html=1;rounded=0;entryX=0;entryY=0.5;entryDx=0;entryDy=0;" parent="1" target="As2ihan8Wz4cfaNSFqjq-24" edge="1">
          <mxGeometry width="50" height="50" relative="1" as="geometry">
            <mxPoint x="150" y="240" as="sourcePoint" />
            <mxPoint x="300" y="465" as="targetPoint" />
          </mxGeometry>
        </mxCell>
        <mxCell id="As2ihan8Wz4cfaNSFqjq-27" value="" style="endArrow=none;html=1;rounded=0;entryX=0.022;entryY=0.36;entryDx=0;entryDy=0;entryPerimeter=0;" parent="1" target="As2ihan8Wz4cfaNSFqjq-11" edge="1">
          <mxGeometry width="50" height="50" relative="1" as="geometry">
            <mxPoint x="130" y="240" as="sourcePoint" />
            <mxPoint x="300" y="525" as="targetPoint" />
          </mxGeometry>
        </mxCell>
        <mxCell id="As2ihan8Wz4cfaNSFqjq-28" value="" style="endArrow=classic;html=1;rounded=0;" parent="1" edge="1">
          <mxGeometry width="50" height="50" relative="1" as="geometry">
            <mxPoint x="960" y="-440" as="sourcePoint" />
            <mxPoint x="140" y="-410" as="targetPoint" />
            <Array as="points">
              <mxPoint x="960" y="-480" />
              <mxPoint x="140" y="-480" />
            </Array>
          </mxGeometry>
        </mxCell>
      </root>
    </mxGraphModel>
  </diagram>
</mxfile>
